<svg width="480" height="138" viewBox="0 0 480 138" fill="none" xmlns="http://www.w3.org/2000/svg">
<path fill-rule="evenodd" clip-rule="evenodd" d="M61.2171 36.6494C57.1219 34.4596 50.8529 31.9005 43.717 29.3192C41.8451 28.642 39.9279 29.9388 39.6322 31.8001C38.7743 37.1999 36.5151 44.3185 32.8217 52.6629L32.8206 52.6652C26.8072 66.3459 16.2317 83.3116 0.971545 97.613C-0.729606 99.2073 -0.0866051 102.033 2.04363 102.833C6.32642 104.443 10.0027 106.438 12.4547 108.395C13.8543 109.615 15.1945 110.228 16.7761 110.228C18.7577 110.228 20.4442 109.221 21.9902 107.507C37.45 91.2392 46.9443 74.8114 56.4099 53.4738C58.9745 47.7034 60.1908 45.6272 61.8032 44.0147C62.8544 42.9635 63.6961 41.6035 63.6961 40.1076C63.6961 39.4547 63.5304 38.7721 63.1023 38.1443C62.6826 37.5287 62.0524 37.0267 61.2171 36.6494ZM138.017 95.947C134.922 98.3884 129.76 101.772 124.605 104.511L124.581 104.524L124.555 104.536C123.475 105.034 122.356 105.35 121.342 104.99C120.286 104.616 119.711 103.654 119.359 102.54C107.964 76.835 96.5889 58.6051 81.6535 42.3575C80.4049 40.9992 80.646 38.8357 82.186 37.7998C84.1987 36.446 86.0187 35.2043 87.6312 34.1043C89.8089 32.6186 91.608 31.3912 92.9921 30.4944C93.8858 29.79 94.8844 29.3476 95.8161 29.3476C96.9989 29.3476 97.8796 29.8769 98.9232 30.9205C116.445 48.4426 129.942 69.3267 139.264 89.8842C139.814 90.817 140.016 91.6229 140.016 92.5876C140.016 93.9726 139.284 95.0366 138.017 95.947ZM233.696 13.3782C233.549 21.2965 233.268 26.2439 232.727 33.0696C232.686 33.5872 232.253 33.9876 231.733 33.9876H216.776C208.2 33.9876 201.426 33.9874 192.52 33.4841C190.736 33.3833 189.24 34.8511 189.34 36.6496C189.622 41.7242 189.938 46.5781 190.503 49.9921C190.59 50.9891 190.812 51.9504 191.385 52.6445C192.031 53.4261 192.953 53.6826 193.977 53.5845C201.477 53.106 209.129 52.7876 216.936 52.7876H228.983C229.602 52.7876 230.061 53.3414 229.956 53.9351C227.405 68.2833 223.596 78.3495 218.972 85.8114C211.029 98.0177 201.459 107.482 185.494 116.145C183.272 117.351 183.398 120.566 185.523 121.744C189.3 123.838 192.562 126.353 194.907 128.93C196.023 130.226 197.402 130.868 198.696 130.868C200.078 130.868 201.543 130.286 202.9 129.439C217.743 120.404 229.697 108.297 237.144 96.1575C243.773 85.7373 248.062 71.7102 251.24 53.1503C251.324 52.6618 251.745 52.3076 252.233 52.3076H280.812C281.374 52.3076 281.823 52.7688 281.809 53.326C281.287 74.3232 279.852 87.3791 277.086 99.0632C276.137 102.619 275.178 104.903 273.998 106.465C272.849 107.986 271.439 108.885 269.426 109.557C266.238 110.576 261.687 111.198 253.391 111.096C251.987 111.079 250.946 111.976 250.474 113.037C250.004 114.092 250.024 115.455 250.866 116.521C253.243 119.526 254.881 122.769 256.306 126.821C256.665 127.978 257.229 128.958 258.051 129.652C258.892 130.361 259.928 130.708 261.096 130.708C267.883 130.708 273.728 129.901 277.504 128.916C282.796 127.592 286.904 125.175 290.095 121.459C293.269 117.763 295.48 112.846 297.101 106.609C300.175 95.7593 302.415 73.4236 303.056 53.7427L303.055 53.7453L303.056 53.7401L303.056 53.7427C303.176 50.5367 303.298 47.6188 303.402 45.1171C303.572 41.0295 303.696 38.0531 303.696 36.7476C303.696 35.7341 303.462 34.7444 302.523 34.1306C301.726 33.6096 300.602 33.5076 299.336 33.5076C295.645 33.5076 291.916 33.5878 288.2 33.6677L288.195 33.6678C284.473 33.7479 280.764 33.8276 277.096 33.8276H254.991C254.401 33.8276 253.933 33.3153 253.99 32.7184C254.299 29.5071 254.497 27.0049 254.671 24.7311C254.691 24.4708 254.711 24.2136 254.73 23.9588C254.881 21.9865 255.021 20.1555 255.212 18.121L255.212 18.1182C255.527 14.6587 255.827 13.2335 257.154 11.0221L257.173 10.9892L257.191 10.9548C257.72 9.89667 258.096 8.62273 258.096 7.46762C258.096 6.5997 257.902 5.69633 257.326 4.90111C256.749 4.10429 255.863 3.51898 254.67 3.15183L254.659 3.14826L254.647 3.14496C249.988 1.83477 243.681 0.795624 236.324 0.0172597C234.315 -0.195194 232.741 1.58725 233.033 3.51479C233.589 7.18694 233.696 10.0025 233.696 13.3782ZM438.056 2.42944C438.467 2.18397 439.045 1.85444 439.635 1.5806C440.193 1.32151 440.933 1.02761 441.576 1.02761C443.452 1.02761 444.612 1.61886 445.837 2.49388L445.851 2.50371L445.865 2.51401C450.714 6.232 453.969 9.48158 456.739 12.9008C458.109 14.4464 458.736 15.7889 458.736 17.3876C458.736 19.434 457.495 21.1967 455.437 22.135C452.869 23.3438 451.683 24.3727 448.658 27.0793C443.396 32.1972 438.293 37.3194 433.157 42.475C428.141 47.5099 423.094 52.5767 417.835 57.7024C424.967 54.3082 431.498 52.8676 439.016 52.8676C450.918 52.8676 461.098 56.7836 468.309 63.7062C475.524 70.6326 479.696 80.5022 479.696 92.2676C479.696 105.924 474.163 117.178 464.235 124.993C454.331 132.79 440.131 137.108 422.856 137.108C412.652 137.108 404.339 134.924 398.55 130.738C392.721 126.523 389.536 120.337 389.536 112.588C389.536 101.187 400.202 92.0676 413.096 92.0676C420.403 92.0676 426.849 93.9135 432.056 97.5862C437.266 101.261 441.169 106.719 443.462 113.83C443.678 114.5 444.372 114.75 444.859 114.497C449.605 112.039 452.99 109.167 455.199 105.592C457.407 102.019 458.496 97.6525 458.496 92.1076C458.496 85.0715 456.028 79.3028 451.826 75.2909C447.619 71.2747 441.599 68.9476 434.376 68.9476C421.387 68.9476 406.893 74.7443 394.074 85.6608C390.398 88.9572 386.826 92.5536 383.088 96.3166C382.139 97.2726 381.179 98.2394 380.203 99.2147C379.637 99.7807 379.102 100.278 378.579 100.634C378.052 100.993 377.455 101.268 376.776 101.268C376.21 101.268 375.67 101.058 375.182 100.765C374.696 100.474 374.201 100.064 373.697 99.5622C370.266 96.6155 366.709 92.4047 364.141 89.0337L364.136 89.0276C363.504 88.1842 363.278 87.2734 363.53 86.33C363.759 85.4693 364.354 84.7153 365.029 84.0405L365.067 84.003L365.108 83.9697C377.548 73.9217 388.557 63.712 402.934 48.696L402.938 48.6918C411.323 40.0362 417.974 33.0002 424.261 25.5419C424.838 24.857 424.259 23.8236 423.342 23.9966C415.036 25.5642 405.929 27.3781 397.791 29.0843C395.719 29.5625 393.701 30.0296 391.217 30.9603C390.775 31.1364 390.142 31.3464 389.514 31.5139C388.906 31.6759 388.197 31.8276 387.656 31.8276C386.677 31.8276 385.775 31.5783 384.992 30.9843C384.235 30.4101 383.669 29.5741 383.23 28.533C381.475 25.1591 380.127 21.1606 378.279 13.9219C377.75 11.8506 379.486 9.97506 381.531 10.1394C385.433 10.4529 389.529 10.4039 393.334 10.1509C403.057 9.19378 417.096 7.11998 429.544 4.72627C433.541 3.92671 436.585 3.15372 438.056 2.42944ZM425.294 120.769C426.416 120.62 427.127 119.509 426.796 118.427C424.491 110.879 419.929 106.668 413.736 106.668C409.096 106.668 406.056 109.388 406.056 112.748C406.056 117.708 410.376 121.068 419.976 121.068C422.018 121.068 423.658 120.987 425.294 120.769Z" fill="#212121"/>
</svg>
